<?xml version="1.0" standalone="no"?>
<!DOCTYPE svg PUBLIC "-//W3C//DTD SVG 20010904//EN"
 "http://www.w3.org/TR/2001/REC-SVG-20010904/DTD/svg10.dtd">
<svg version="1.0" xmlns="http://www.w3.org/2000/svg"
 width="3072.000000pt" height="3072.000000pt" viewBox="0 0 3072.000000 3072.000000"
 preserveAspectRatio="xMidYMid meet">
<metadata>
Created by potrace 1.14, written by Peter Selinger 2001-2017
</metadata>
<g transform="translate(0.000000,3072.000000) scale(0.100000,-0.100000)"
fill="#000000" stroke="none">
<path d="M11151 22434 c0 -5 215 -468 478 -1029 l478 -1020 -86 -95 c-421
-461 -828 -1031 -1139 -1592 -854 -1543 -1201 -3314 -971 -4958 135 -968 482
-1900 989 -2655 l71 -106 47 34 c26 18 355 246 732 507 377 260 689 476 693
480 5 4 -25 58 -66 121 -245 379 -441 826 -562 1284 -306 1153 -197 2473 305
3710 191 469 488 1003 778 1399 46 63 51 67 61 47 6 -11 198 -420 427 -908
228 -488 419 -892 423 -896 5 -5 817 1150 1805 2565 l1796 2573 -38 7 c-20 4
-1403 125 -3072 268 -1669 143 -3061 263 -3092 266 -32 4 -58 3 -57 -2z"/>
<path d="M21030 20179 c-377 -307 -689 -564 -694 -571 -6 -10 16 -45 72 -119
325 -426 588 -972 737 -1534 306 -1153 197 -2473 -305 -3710 -191 -469 -488
-1003 -778 -1399 -46 -63 -51 -67 -61 -47 -6 11 -198 420 -427 908 -228 488
-419 892 -423 896 -5 5 -817 -1150 -1805 -2565 l-1796 -2573 38 -7 c50 -10
6214 -540 6219 -534 2 2 -212 464 -475 1027 l-479 1024 86 95 c821 900 1460
2020 1820 3192 628 2046 424 4165 -558 5791 -132 219 -426 637 -472 673 -11 8
-171 -117 -699 -547z"/>
</g>
</svg>
